<?xml version="1.0" encoding="utf-8"?>
<!-- Generator: Adobe Illustrator 16.0.0, SVG Export Plug-In . SVG Version: 6.00 Build 0)  -->
<!DOCTYPE svg PUBLIC "-//W3C//DTD SVG 1.1//EN" "http://www.w3.org/Graphics/SVG/1.1/DTD/svg11.dtd">
<svg version="1.1" id="Layer_1" xmlns="http://www.w3.org/2000/svg" xmlns:xlink="http://www.w3.org/1999/xlink" x="0px" y="0px"
	 width="864px" height="864px" viewBox="0 0 864 864" enable-background="new 0 0 864 864" xml:space="preserve">
<g id="Blocky_FSLC">
	<polygon fill="#FBB040" points="152.439,325.27 204.797,325.27 152.584,377.484 	"/>
	<path fill="#D2D4D3" d="M152.366,381.916v47.993h53.448C205.813,429.909,200.142,381.916,152.366,381.916z"/>
	<path fill="#A3AAAD" d="M205.269,483.034h-53.23v53.447C152.038,536.481,205.269,530.81,205.269,483.034z"/>
	<path fill="#7D868C" d="M99.427,429.766h52.793V325.488c0,0-52.793,0.654-52.793,51.921
		C99.427,428.675,99.427,429.766,99.427,429.766z"/>
	<path fill="#5D6771" d="M152.076,482.416v-52.793H47.798c0,0,0.654,52.793,51.92,52.793
		C150.985,482.416,152.076,482.416,152.076,482.416z"/>
	<rect x="152.149" y="429.841" fill="#C5C7C8" width="53.23" height="53.231"/>
	<rect x="98.919" y="482.631" fill="#333E47" width="53.23" height="53.23"/>
	<path fill="#7D868C" d="M364.775,394.135v-35.199H278.46c0,0-52.794,0.656-52.794,51.923c0,31.137,0,43.748,0,48.865
		c0,3.307,0,3.49,0,3.49v72.009h52.867V466.27h67.629v-35.197H278.46v-36.937H364.775z"/>
	<path fill="#7D868C" d="M428.914,425.185V393.77h84.555c-4.229-18.659-20.88-32.6-40.816-32.6h-58.391
		c-23.133,0-41.885,18.754-41.885,41.886v62.848h82.716v31.414h-82.541c1.764,21.509,19.746,38.422,41.71,38.422h58.391
		c23.133,0,41.885-18.753,41.885-41.884v-68.671H428.914z"/>
	<path fill="#FBB040" d="M575.513,497.322V360.031h-6.98c-23.133,0-41.886,18.755-41.886,41.886v91.939
		c0,23.131,18.753,41.884,41.886,41.884h61.21c21.961,0,39.944-16.913,41.71-38.418H575.513z"/>
	<path fill="#7D868C" d="M727.933,491.511v-87.263h94.951v-2.34c0-23.135-18.752-41.886-41.886-41.886h-61.212
		c-23.134,0-41.886,18.751-41.886,41.886v91.941c0,23.133,18.752,41.886,41.886,41.886h61.212c23.134,0,41.886-18.753,41.886-41.886
		v-2.338H727.933z"/>
</g>
</svg>
